# xmcd
#
# Track frame offsets: 
#        150
#        10541
#        21192
#        31696
#        45589
#        59897
#        71216
#        85216
#        98427
#        108849
#
# Disc length: 1620 seconds
#
# Revision: 0
# Processed by: cddbd v1.4PL0 Copyright (c) Steve Scherf et al.
# Submitted via: ExactAudioCopy v0.90a11
#
DISCID=7306520a
DTITLE=Tom T. Hall - Ol T's in Town
DYEAR=1900
DGENRE=
TTITLE0=The Last Country Song
TTITLE1=Old Habits Die Hard
TTITLE2=Jesus on the Radio (Daddy on the Phone)
TTITLE3=The Old Side of Town
TTITLE4=Greed Kills More People Than Whiskey
TTITLE5=You Show Me Your Heart (And I'll Show You Mine)
TTITLE6=The Different Feeling
TTITLE7=Girl You Sure Know How to Say Goodbye
TTITLE8=What Do You Mean When You Say Goodbye
TTITLE9=I Left You Some Kisses on the Door
EXTD=
EXTT0=
EXTT1=
EXTT2=
EXTT3=
EXTT4=
EXTT5=
EXTT6=
EXTT7=
EXTT8=
EXTT9=
PLAYORDER=
